# xmcd CD database file
#
# Track frame offsets:
#	150
#	17927
#	52300
#	79640
#	102727
#	150300
#	171950
#	188305
#	230317
#	256322
#	289455
#
# Disc length: 4308 seconds
#
# Revision: 1
# Processed by: cddbd v1.5.2PL0 Copyright (c) Steve Scherf et al.
# Submitted via: CDex 1.51
#
DISCID=9010d20b
DTITLE=Tonky blues band - Night time
DYEAR=1998
DGENRE=Blues
TTITLE0=La coquette shuffle
TTITLE1=Stormy monday
TTITLE2=Jump your blues away
TTITLE3=Boogie with Mr. Shuffle
TTITLE4=After hours reunion
TTITLE5=Noche de Conil
TTITLE6=Big legs
TTITLE7=Escarcha
TTITLE8=Cat fish
TTITLE9=Cannon ball
TTITLE10=Can´t quick you baby
EXTD=YEAR: 1998
EXTT0=
EXTT1=
EXTT2=
EXTT3=
EXTT4=
EXTT5=
EXTT6=
EXTT7=
EXTT8=
EXTT9=
EXTT10=
PLAYORDER=
